<?xml version="1.0" encoding="UTF-8"?>
<svg version="1.1" xmlns="http://www.w3.org/2000/svg" width="307" height="149">
<path d="M0 0 C6.61826989 4.04765433 11.09151792 9.89513136 13.125 17.35546875 C14.57127254 24.44478684 13.26347195 31.29324749 9.5625 37.5 C3.18878015 44.47085416 -4.74850837 48.87002601 -12.9375 53.375 C-14.18279918 54.07041567 -15.4274234 54.7670413 -16.67138672 55.46484375 C-18.52617714 56.50528498 -20.38126185 57.5451112 -22.23873901 58.58074951 C-28.10865645 61.85673708 -33.88904916 65.27536785 -39.63867188 68.75732422 C-44.22537475 71.5 -44.22537475 71.5 -46.4375 71.5 C-44.00718847 74.20057066 -41.38072326 75.82877168 -38.23046875 77.6171875 C-37.17891602 78.21789062 -36.12736328 78.81859375 -35.04394531 79.4375 C-33.91569336 80.076875 -32.78744141 80.71625 -31.625 81.375 C-30.45754938 82.04347085 -29.29056178 82.71275093 -28.12402344 83.3828125 C-23.4743912 86.05282241 -18.82079444 88.71560473 -14.15673828 91.36035156 C-11.16010994 93.06186273 -8.17317919 94.77936982 -5.1875 96.5 C-4.2905542 97.00257324 -3.3936084 97.50514648 -2.46948242 98.02294922 C5.33874441 102.54999975 10.59012252 107.49019362 13.09375 116.3125 C14.78707403 124.21467881 12.44622199 130.65720714 9 137.6875 C4.83501965 142.49324655 -1.09556738 146.35044398 -7.4375 147.5 C-16.75199051 148.13149088 -24.05814792 145.09848997 -31.875 140.25 C-33.36109329 139.35269785 -34.84813728 138.45696907 -36.3359375 137.5625 C-37.14514648 137.07394531 -37.95435547 136.58539063 -38.78808594 136.08203125 C-43.82253691 133.07583494 -48.91573416 130.17085233 -54 127.25 C-64.54417025 121.17723252 -75.07429396 115.08145271 -85.5703125 108.92578125 C-89.56991325 106.58162664 -93.58696814 104.27155117 -97.6171875 101.98046875 C-99.59899137 100.84120331 -101.58076342 99.7018825 -103.5625 98.5625 C-104.4690332 98.05509277 -105.37556641 97.54768555 -106.30957031 97.02490234 C-114.11058526 92.50860318 -119.47336508 87.58206811 -121.96484375 78.75 C-123.56212569 71.14640992 -122.02763478 65.29244636 -118.4375 58.5 C-115.58316013 54.34534974 -112.65946651 52.13635652 -108.3125 49.625 C-107.67417236 49.25262207 -107.03584473 48.88024414 -106.37817383 48.49658203 C-104.07031946 47.15430476 -101.75377915 45.8276835 -99.4375 44.5 C-97.48524157 43.37054411 -95.53344791 42.24028464 -93.58203125 41.109375 C-88.01789839 37.88891455 -82.4467057 34.68086366 -76.87353516 31.47607422 C-71.3511296 28.30012207 -65.83148599 25.1193898 -60.3125 21.9375 C-58.72018555 21.02037231 -58.72018555 21.02037231 -57.09570312 20.0847168 C-51.59969135 16.91564549 -46.11458038 13.72932795 -40.64453125 10.515625 C-39.00218506 9.55184937 -39.00218506 9.55184937 -37.32666016 8.56860352 C-35.24509868 7.34560282 -33.16524688 6.11968593 -31.08740234 4.89038086 C-30.15492676 4.34260986 -29.22245117 3.79483887 -28.26171875 3.23046875 C-27.44791748 2.74989014 -26.63411621 2.26931152 -25.7956543 1.77416992 C-18.0795188 -2.39505165 -8.24100654 -3.65189702 0 0 Z " fill="#4284F3" transform="translate(123.4375,1.5)"/>
<path d="M0 0 C2.57971962 1.39587823 5.10068668 2.88176023 7.625 4.375 C9.39253054 5.39444143 11.16081765 6.41257173 12.9296875 7.4296875 C17.01134177 9.78835678 21.07961316 12.1684756 25.140625 14.5625 C31.61145659 18.3753191 38.11508875 22.12941127 44.625 25.875 C47.87272644 27.74812549 51.11996524 29.6220944 54.3671875 31.49609375 C56.55920426 32.76031445 58.75192583 34.0233138 60.9453125 35.28515625 C64.1744531 37.14401142 67.4000539 39.0088795 70.625 40.875 C71.58535156 41.42607422 72.54570312 41.97714844 73.53515625 42.54492188 C94.15337835 54.50697056 94.15337835 54.50697056 96.625 63.375 C97.57046161 71.77342479 98.0387677 80.39253709 92.625 87.375 C87.22249189 92.95382509 80.52306328 96.54299841 73.8125 100.3125 C72.07123349 101.3037298 70.32997338 102.29497106 68.58911133 103.28691101 C66.79068273 104.31043478 64.9904693 105.33076044 63.18994141 106.35058594 C57.60883437 109.51526595 52.05545757 112.72808153 46.5 115.9375 C45.43402588 116.55230225 44.36805176 117.16710449 43.26977539 117.80053711 C33.87321415 123.22236932 24.49965616 128.68327308 15.1328125 134.15625 C14.24142578 134.67630615 13.35003906 135.1963623 12.43164062 135.73217773 C10.41691587 136.91146469 8.40558668 138.09655998 6.39648438 139.28540039 C5.32978516 139.91438232 4.26308594 140.54336426 3.1640625 141.19140625 C2.1942041 141.76576416 1.2243457 142.34012207 0.22509766 142.93188477 C-6.1390817 146.4641537 -12.84435094 147.65660562 -19.9296875 145.65234375 C-28.4503998 142.52976817 -33.25039294 137.35452827 -37.375 129.375 C-39.55982046 122.32895402 -38.78422778 114.88255114 -35.375 108.375 C-31.05085674 101.92991147 -25.30407369 98.57878585 -18.625 94.875 C-17.59109131 94.2862207 -16.55718262 93.69744141 -15.49194336 93.09082031 C-12.71102507 91.50790971 -9.92425472 89.9359275 -7.13519287 88.36743164 C-2.30455419 85.64382177 2.50654934 82.88590896 7.3157959 80.12475586 C9.04373083 79.13574286 10.77624126 78.15473788 12.50878906 77.17382812 C14.08031738 76.27567383 14.08031738 76.27567383 15.68359375 75.359375 C17.08049438 74.56611816 17.08049438 74.56611816 18.50561523 73.75683594 C20.74860367 72.54861722 20.74860367 72.54861722 21.625 70.375 C20.89788818 70.09825439 20.17077637 69.82150879 19.42163086 69.53637695 C16.77788172 68.43848829 14.36806408 67.20215854 11.87890625 65.79296875 C10.96947266 65.27951904 10.06003906 64.76606934 9.12304688 64.23706055 C8.15431641 63.68445557 7.18558594 63.13185059 6.1875 62.5625 C5.18138672 61.98862549 4.17527344 61.41475098 3.13867188 60.82348633 C1.02900515 59.61732874 -1.07953719 58.4092026 -3.18701172 57.19921875 C-6.29521811 55.4206525 -9.41452054 53.6628893 -12.53515625 51.90625 C-14.48240827 50.79278069 -16.42904664 49.67823737 -18.375 48.5625 C-19.72549438 47.80972778 -19.72549438 47.80972778 -21.10327148 47.04174805 C-29.17911803 42.35798594 -35.41980855 36.75631176 -37.9375 27.51953125 C-39.4235959 20.2350076 -37.86634523 13.85627387 -34.375 7.375 C-25.20551194 -3.19728287 -12.91861257 -6.27746535 0 0 Z " fill="#0F9C57" transform="translate(210.375,2.625)"/>
<path d="M0 0 C2.88814224 0.49992266 5.18681709 1.50879467 7.73046875 2.93359375 C8.79950439 3.52914062 8.79950439 3.52914062 9.89013672 4.13671875 C10.6482666 4.56597656 11.40639648 4.99523437 12.1875 5.4375 C12.97398926 5.87835938 13.76047852 6.31921875 14.57080078 6.7734375 C20.93497218 10.35717031 27.24101159 14.03827141 33.51635742 17.77514648 C34.17869385 18.16903564 34.84103027 18.5629248 35.5234375 18.96875 C36.10013184 19.31357422 36.67682617 19.65839844 37.27099609 20.01367188 C37.84156738 20.33916016 38.41213867 20.66464844 39 21 C39.64243652 21.36786621 40.28487305 21.73573242 40.94677734 22.11474609 C43.2503261 23.10792895 44.83072925 23.23098958 47.328125 23.1953125 C48.12734375 23.18886719 48.9265625 23.18242188 49.75 23.17578125 C50.575 23.15902344 51.4 23.14226562 52.25 23.125 C53.51070312 23.11146484 53.51070312 23.11146484 54.796875 23.09765625 C56.86470604 23.07415817 58.93238995 23.03828908 61 23 C58.04996214 25.30552433 55.01454714 27.22399315 51.765625 29.08203125 C50.72921875 29.67693359 49.6928125 30.27183594 48.625 30.88476562 C47.51125 31.52091797 46.3975 32.15707031 45.25 32.8125 C42.87950415 34.1719515 40.51010527 35.53331061 38.140625 36.89453125 C37.53980103 37.23936554 36.93897705 37.58419983 36.31994629 37.93948364 C30.52993842 41.26447249 24.76334499 44.62903246 19 48 C10.34184479 53.05638001 1.67696638 58.10097771 -7 63.125 C-8.08023438 63.75277344 -9.16046875 64.38054687 -10.2734375 65.02734375 C-29.5389172 76.16444096 -29.5389172 76.16444096 -39 75 C-48.18297353 72.42820833 -53.00324365 67.92519606 -57.984375 59.96484375 C-61.42713115 53.30443475 -60.34846325 46.24899419 -58.2421875 39.37109375 C-54.13405315 31.52946623 -47.81565472 27.69481237 -40.25 23.5 C-38.69913696 22.6179187 -38.69913696 22.6179187 -37.11694336 21.71801758 C-34.90946954 20.46267072 -32.69900476 19.21257125 -30.48583984 17.96728516 C-25.06990779 14.91786619 -19.69128081 11.80345994 -14.3092041 8.69482422 C-12.5797784 7.69746445 -10.84800486 6.70417946 -9.11621094 5.7109375 C-7.54468262 4.80794922 -7.54468262 4.80794922 -5.94140625 3.88671875 C-4.54450562 3.08560669 -4.54450562 3.08560669 -3.11938477 2.26831055 C-1.08882777 1.1700457 -1.08882777 1.1700457 0 0 Z " fill="#FABB04" transform="translate(232,74)"/>
<path d="M0 0 C6.61826989 4.04765433 11.09151792 9.89513136 13.125 17.35546875 C14.57127254 24.44478684 13.26347195 31.29324749 9.5625 37.5 C3.21589387 44.43145008 -4.66259289 48.82987954 -12.8125 53.3125 C-14.67958051 54.35299896 -16.54492239 55.39656917 -18.41020203 56.44029236 C-19.65039985 57.1337957 -20.89137266 57.82591504 -22.13313293 58.51661682 C-25.90224985 60.61797228 -29.62338785 62.78350329 -33.31640625 65.015625 C-34.18152832 65.53535889 -35.04665039 66.05509277 -35.93798828 66.59057617 C-37.51982005 67.54598228 -39.09546602 68.51173447 -40.66357422 69.48950195 C-41.70989014 70.11538208 -41.70989014 70.11538208 -42.77734375 70.75390625 C-43.66474243 71.30026733 -43.66474243 71.30026733 -44.57006836 71.85766602 C-47.22985941 72.77254512 -48.76006137 72.32055356 -51.4375 71.5 C-53.3686138 70.52503861 -55.26127392 69.47209494 -57.12109375 68.3671875 C-58.20672607 67.7285376 -59.2923584 67.0898877 -60.41088867 66.43188477 C-60.97697845 66.09520782 -61.54306824 65.75853088 -62.12631226 65.41165161 C-65.05553103 63.67516128 -68.0058613 61.97514755 -70.953125 60.26953125 C-76.9355071 56.79862088 -76.9355071 56.79862088 -79.77929688 55.10693359 C-89.02710385 49.63077217 -95.89618859 48.56988429 -106.4375 49.5 C-103.02916354 46.6544796 -99.60283016 44.31788398 -95.73828125 42.13671875 C-94.62485352 41.50491699 -93.51142578 40.87311523 -92.36425781 40.22216797 C-91.48187439 39.72544586 -91.48187439 39.72544586 -90.58166504 39.21868896 C-88.07233426 37.80598842 -85.56859703 36.38349907 -83.06436157 34.96179199 C-81.76856981 34.22633654 -80.47248562 33.49139607 -79.17611694 32.75695801 C-72.82880119 29.16042126 -66.50530713 25.52310791 -60.1875 21.875 C-59.13449707 21.26785156 -58.08149414 20.66070313 -56.99658203 20.03515625 C-51.53670499 16.88313142 -46.0881162 13.71295979 -40.65234375 10.51953125 C-39.55631836 9.8764502 -38.46029297 9.23336914 -37.33105469 8.57080078 C-35.24781882 7.34706628 -33.16633445 6.12034347 -31.08691406 4.89013672 C-29.68844238 4.06860107 -29.68844238 4.06860107 -28.26171875 3.23046875 C-27.44791748 2.74989014 -26.63411621 2.26931152 -25.7956543 1.77416992 C-18.0795188 -2.39505165 -8.24100654 -3.65189702 0 0 Z " fill="#E94335" transform="translate(123.4375,1.5)"/>
<path d="M0 0 C0.80050781 0.12761719 1.60101563 0.25523438 2.42578125 0.38671875 C3.23402344 0.50660156 4.04226562 0.62648437 4.875 0.75 C5.48988281 0.85699219 6.10476562 0.96398438 6.73828125 1.07421875 C6.73828125 1.40421875 6.73828125 1.73421875 6.73828125 2.07421875 C0.79828125 2.56921875 0.79828125 2.56921875 -5.26171875 3.07421875 C-2.26171875 0.07421875 -2.26171875 0.07421875 0 0 Z " fill="#CA4E56" transform="translate(22.26171875,47.92578125)"/>
</svg>