<?xml version="1.0" encoding="UTF-8"?>
<svg version="1.1" xmlns="http://www.w3.org/2000/svg" width="512" height="512">
<path d="M0 0 C19.49707556 13.21511015 37.43826503 28.78896209 51.98828125 47.34765625 C52.41173828 47.88358398 52.83519531 48.41951172 53.27148438 48.97167969 C54.59969734 50.65493044 55.91957222 52.34445355 57.23828125 54.03515625 C57.67261475 54.58381348 58.10694824 55.1324707 58.55444336 55.69775391 C60.89228593 58.7056903 62.56537227 61.54602537 64.05078125 65.03515625 C65.05265374 67.02175724 65.05265374 67.02175724 66.98828125 68.34765625 C71.22623759 69.24906284 75.3669418 69.62257773 79.6796875 69.94140625 C88.48418233 70.63391622 96.72131154 74.03644911 102.98828125 80.34765625 C108.22649065 86.69879966 107.59561181 94.51209644 106.98828125 102.34765625 C106.65828125 103.33765625 106.32828125 104.32765625 105.98828125 105.34765625 C106.50398682 105.01668945 107.01969238 104.68572266 107.55102539 104.34472656 C139.36573652 84.03196142 180.30987262 59.74320234 219.87109375 67.06640625 C236.64631487 71.98396516 249.01226631 82.71641852 257.453125 98 C271.0695523 126.1847629 268.40538985 160.9538021 258.4753418 189.8828125 C247.3522605 220.40899818 228.12825783 239.67817959 199.13433838 253.38287354 C193.1050114 256.09342134 186.83217492 258.1240488 180.55078125 260.16015625 C179.79780762 260.40889496 179.04483398 260.65763367 178.26904297 260.91390991 C163.83843734 265.67451628 149.22366117 269.69111719 134.49829102 273.4309082 C118.27669061 277.58179514 102.46986833 282.76152042 87.30078125 289.91015625 C86.21684082 290.41699951 85.13290039 290.92384277 84.01611328 291.44604492 C55.45872403 305.0224748 28.91050933 322.34217975 2.98828125 340.34765625 C2.04065918 341.00411133 1.09303711 341.66056641 0.11669922 342.33691406 C-8.34413896 348.19867123 -16.79696595 354.07173005 -25.203125 360.01171875 C-41.98173336 371.85687895 -59.00662077 383.42822762 -77.01171875 393.34765625 C-77.89601562 393.84394531 -78.7803125 394.34023438 -79.69140625 394.8515625 C-88.63633938 399.17344097 -100.63357978 398.84185029 -109.94921875 395.78515625 C-126.52982885 388.611095 -137.87505136 374.64893681 -144.8828125 358.34375 C-153.82412437 334.61369393 -152.40320595 310.49088138 -142.17822266 287.47119141 C-136.42446886 275.33410396 -128.19672581 265.04294148 -119.01171875 255.34765625 C-118.2021875 254.47367187 -117.39265625 253.5996875 -116.55859375 252.69921875 C-106.24204698 241.91935401 -94.25726851 233.35427047 -81.390625 225.87109375 C-78.90843447 224.56778621 -78.90843447 224.56778621 -78.01171875 222.34765625 C-78.56859375 222.14140625 -79.12546875 221.93515625 -79.69921875 221.72265625 C-85.5964617 218.21618747 -88.19676207 212.71226784 -90.01171875 206.34765625 C-92.59617697 195.90644503 -90.01533826 185.64009248 -85.01171875 176.34765625 C-84.03791856 175.11811055 -83.04063544 173.90646362 -82.01171875 172.72265625 C-79.74386683 169.70859446 -79.74386683 169.70859446 -80.31225586 167.37988281 C-80.57272705 166.6319043 -80.83319824 165.88392578 -81.1015625 165.11328125 C-81.39401855 164.22882324 -81.68647461 163.34436523 -81.98779297 162.43310547 C-82.49463623 160.90580811 -82.49463623 160.90580811 -83.01171875 159.34765625 C-83.75180646 156.85777765 -84.48285169 154.36664778 -85.203125 151.87109375 C-85.59417712 150.52727857 -85.98545637 149.18352946 -86.37695312 147.83984375 C-86.57377686 147.16276367 -86.77060059 146.48568359 -86.97338867 145.78808594 C-87.57528317 143.71899717 -88.17924228 141.65051766 -88.78320312 139.58203125 C-90.64252764 133.19676863 -92.47296066 126.81875783 -94.01171875 120.34765625 C-94.1317627 121.19658447 -94.25180664 122.0455127 -94.37548828 122.92016602 C-104.97963263 196.854894 -104.97963263 196.854894 -128.63867188 215.6394043 C-134.2687966 219.50467916 -140.16820455 221.01964448 -146.76171875 222.53515625 C-147.76976562 222.78201172 -148.7778125 223.02886719 -149.81640625 223.28320312 C-159.17155806 225.5262862 -168.35887107 227.50573999 -178.01171875 227.34765625 C-178.00124512 228.4056543 -177.99077148 229.46365234 -177.97998047 230.55371094 C-177.94337495 234.53463261 -177.92067302 238.51553988 -177.90185547 242.49658203 C-177.8918892 244.20917271 -177.87831128 245.92174679 -177.86083984 247.63427734 C-177.56254746 277.65652826 -177.56254746 277.65652826 -185.93139648 286.33935547 C-192.99789082 292.79553132 -200.5899981 298.05901441 -208.57421875 303.28515625 C-209.91145066 304.16761293 -211.24860835 305.05018208 -212.58569336 305.93286133 C-219.66983685 310.59275351 -226.78696533 315.19740639 -234.07421875 319.53515625 C-234.72656494 319.92630615 -235.37891113 320.31745605 -236.05102539 320.72045898 C-239.33930266 322.62097404 -242.23075857 323.86878228 -246.01171875 324.34765625 C-245.06561179 319.95678046 -242.91412267 316.3967471 -240.69921875 312.53515625 C-236.01713066 304.25212461 -231.57773346 295.85841048 -227.21166992 287.4050293 C-226.49974487 286.02891479 -226.49974487 286.02891479 -225.7734375 284.625 C-225.08580322 283.28477783 -225.08580322 283.28477783 -224.38427734 281.91748047 C-223.49753613 280.25724603 -222.56520544 278.62022498 -221.58056641 277.01611328 C-216.03309255 267.94403431 -216.66159746 259.85004838 -218.76171875 249.72265625 C-218.94637695 248.76625244 -219.13103516 247.80984863 -219.32128906 246.82446289 C-220.16258535 242.4824877 -221.05206662 238.15102184 -221.94921875 233.8203125 C-226.29900524 212.4980277 -226.29900524 212.4980277 -221.29467773 203.19970703 C-219.21226314 200.19358009 -216.45168101 198.52431679 -213.32421875 196.78515625 C-212.64576904 196.38369385 -211.96731934 195.98223145 -211.26831055 195.56860352 C-209.73201232 194.66098246 -208.19038114 193.76234923 -206.64453125 192.87109375 C-201.50532961 189.89737173 -196.41879358 186.83447763 -191.32421875 183.78515625 C-190.2463208 183.14231689 -189.16842285 182.49947754 -188.05786133 181.8371582 C-175.89518551 174.97894994 -175.89518551 174.97894994 -165.01171875 166.34765625 C-163.915923 155.39844514 -166.14183585 144.45338832 -167.83270264 133.68011475 C-172.10341459 106.35402822 -175.39149929 79.03011829 -176.01171875 51.34765625 C-176.03363281 50.42275391 -176.05554688 49.49785156 -176.078125 48.54492188 C-176.61285985 22.36073878 -174.0930038 -3.57343415 -155.27319336 -23.5402832 C-114.01036712 -65.33725606 -40.46257792 -26.73562841 0 0 Z " fill="#52528C" transform="translate(246.01171875,78.65234375)"/>
<path d="M0 0 C19.51358589 13.22630085 37.39370391 28.804546 51.98828125 47.34765625 C53.2103125 48.84425781 53.2103125 48.84425781 54.45703125 50.37109375 C61.01338239 58.49711473 66.1801789 67.09382691 70.98828125 76.34765625 C71.53355469 77.37536133 71.53355469 77.37536133 72.08984375 78.42382812 C73.14417317 80.42819178 74.16540622 82.44583635 75.17578125 84.47265625 C75.76746094 85.65085938 76.35914063 86.8290625 76.96875 88.04296875 C78.21273982 92.07521162 77.79917452 93.58852668 75.98828125 97.34765625 C57.74760606 127.01732591 28.57830112 147.30344799 -1.01171875 164.34765625 C-1.62595703 164.70778809 -2.24019531 165.06791992 -2.87304688 165.43896484 C-19.9637828 175.40526016 -39.0914877 183.10607016 -57.69921875 189.72265625 C-58.91774536 190.16073608 -58.91774536 190.16073608 -60.16088867 190.60766602 C-65.63181982 192.47428923 -65.63181982 192.47428923 -69.01171875 191.34765625 C-70.00732422 189.75634766 -70.00732422 189.75634766 -70.87890625 187.69921875 C-71.37197266 186.56033203 -71.37197266 186.56033203 -71.875 185.3984375 C-72.20886719 184.59792969 -72.54273438 183.79742187 -72.88671875 182.97265625 C-73.55014824 181.42290595 -74.21421952 179.87343024 -74.87890625 178.32421875 C-75.22099121 177.51380127 -75.56307617 176.70338379 -75.91552734 175.8684082 C-76.65363696 174.17108487 -77.42304043 172.487069 -78.22119141 170.81713867 C-81.54841689 163.84854292 -83.91302823 156.76983202 -86.06933594 149.35961914 C-86.63569841 147.41366201 -87.21327504 145.47131975 -87.79296875 143.52929688 C-90.06292314 135.84667538 -92.14383707 128.13775753 -94.01171875 120.34765625 C-94.1317627 121.19658447 -94.25180664 122.0455127 -94.37548828 122.92016602 C-104.97963263 196.854894 -104.97963263 196.854894 -128.63867188 215.6394043 C-134.2687966 219.50467916 -140.16820455 221.01964448 -146.76171875 222.53515625 C-147.76976562 222.78201172 -148.7778125 223.02886719 -149.81640625 223.28320312 C-159.17155806 225.5262862 -168.35887107 227.50573999 -178.01171875 227.34765625 C-178.00124512 228.4056543 -177.99077148 229.46365234 -177.97998047 230.55371094 C-177.94337495 234.53463261 -177.92067302 238.51553988 -177.90185547 242.49658203 C-177.8918892 244.20917271 -177.87831128 245.92174679 -177.86083984 247.63427734 C-177.56254746 277.65652826 -177.56254746 277.65652826 -185.93139648 286.33935547 C-192.99789082 292.79553132 -200.5899981 298.05901441 -208.57421875 303.28515625 C-209.91145066 304.16761293 -211.24860835 305.05018208 -212.58569336 305.93286133 C-219.66983685 310.59275351 -226.78696533 315.19740639 -234.07421875 319.53515625 C-234.72656494 319.92630615 -235.37891113 320.31745605 -236.05102539 320.72045898 C-239.33930266 322.62097404 -242.23075857 323.86878228 -246.01171875 324.34765625 C-245.06561179 319.95678046 -242.91412267 316.3967471 -240.69921875 312.53515625 C-236.01713066 304.25212461 -231.57773346 295.85841048 -227.21166992 287.4050293 C-226.49974487 286.02891479 -226.49974487 286.02891479 -225.7734375 284.625 C-225.08580322 283.28477783 -225.08580322 283.28477783 -224.38427734 281.91748047 C-223.49753613 280.25724603 -222.56520544 278.62022498 -221.58056641 277.01611328 C-216.03309255 267.94403431 -216.66159746 259.85004838 -218.76171875 249.72265625 C-218.94637695 248.76625244 -219.13103516 247.80984863 -219.32128906 246.82446289 C-220.16258535 242.4824877 -221.05206662 238.15102184 -221.94921875 233.8203125 C-226.29900524 212.4980277 -226.29900524 212.4980277 -221.29467773 203.19970703 C-219.21226314 200.19358009 -216.45168101 198.52431679 -213.32421875 196.78515625 C-212.64576904 196.38369385 -211.96731934 195.98223145 -211.26831055 195.56860352 C-209.73201232 194.66098246 -208.19038114 193.76234923 -206.64453125 192.87109375 C-201.50532961 189.89737173 -196.41879358 186.83447763 -191.32421875 183.78515625 C-190.2463208 183.14231689 -189.16842285 182.49947754 -188.05786133 181.8371582 C-175.89518551 174.97894994 -175.89518551 174.97894994 -165.01171875 166.34765625 C-163.915923 155.39844514 -166.14183585 144.45338832 -167.83270264 133.68011475 C-172.10341459 106.35402822 -175.39149929 79.03011829 -176.01171875 51.34765625 C-176.03363281 50.42275391 -176.05554688 49.49785156 -176.078125 48.54492188 C-176.61285985 22.36073878 -174.0930038 -3.57343415 -155.27319336 -23.5402832 C-114.01036712 -65.33725606 -40.46257792 -26.73562841 0 0 Z " fill="#51518C" transform="translate(246.01171875,78.65234375)"/>
<path d="M0 0 C16.47765512 12.78438759 25.0395782 30.56454246 28 51 C30.02028218 87.45146365 23.24821196 125.03874354 -1.74609375 153.15625 C-13.88260374 166.20872301 -34.80937023 180.60618351 -52.95214844 182.38818359 C-54.33776125 182.4074246 -55.7236782 182.41016222 -57.109375 182.3984375 C-58.24402443 182.40464615 -58.24402443 182.40464615 -59.40159607 182.41098022 C-61.85148116 182.4171374 -64.30022892 182.39827403 -66.75 182.375 C-67.59092194 182.37101196 -68.43184387 182.36702393 -69.29824829 182.36291504 C-101.05088637 182.18673527 -143.13249291 180.85122273 -168 158 C-166.44624072 153.94912758 -163.84943786 152.03932557 -160.5 149.375 C-139.97782375 132.49456441 -113.49210579 106.94410339 -109.73388672 79.02294922 C-109.07190406 71.36865943 -109.15607444 66.16804362 -114 60 C-115.53266797 58.30585924 -117.09659765 56.6395773 -118.6875 55 C-122.58847727 50.76233124 -126.00867392 46.42839051 -129.1875 41.625 C-129.58606201 41.04234375 -129.98462402 40.4596875 -130.39526367 39.859375 C-132.0411978 37.28808893 -133.03724694 35.57718752 -132.83764648 32.48413086 C-131.80496488 29.42160234 -130.85117795 28.74965849 -128.1171875 27.08984375 C-127.29154297 26.58090576 -126.46589844 26.07196777 -125.61523438 25.54760742 C-124.25881836 24.75060425 -124.25881836 24.75060425 -122.875 23.9375 C-121.93720703 23.37458252 -120.99941406 22.81166504 -120.03320312 22.23168945 C-87.96738426 3.22116381 -35.98006973 -25.21184097 0 0 Z " fill="#404077" transform="translate(484,154)"/>
<path d="M0 0 C12.49186192 -0.59801467 23.93433666 1.05439395 34 9 C38.79962053 14.20880476 40.14008549 18.71046047 40.125 25.6875 C40.12628906 26.945625 40.12757813 28.20375 40.12890625 29.5 C40.02629327 32.2860979 39.72472673 34.51633335 39.0625 37.1875 C38.90581371 46.74536351 48.43444583 55.15672452 54.44921875 62.0546875 C61.21399666 69.86577868 62.92500318 74.53678566 62.26074219 84.86816406 C58.66434015 114.27245489 28.45751873 143.04585224 6.75 160.0625 C4.52899025 161.75071477 2.27417524 163.38432299 0 165 C-0.62825684 165.45133301 -1.25651367 165.90266602 -1.90380859 166.36767578 C-11.29867293 173.08358102 -20.95279043 179.30698917 -31 185 C-31.69367676 185.39541992 -32.38735352 185.79083984 -33.10205078 186.19824219 C-56.24896539 199.25494508 -88.44080969 216.03323233 -115.92578125 209.28125 C-118.10972103 208.34581465 -120.01243236 207.29642641 -122 206 C-122.60714844 205.67257812 -123.21429688 205.34515625 -123.83984375 205.0078125 C-133.55494733 199.18300204 -137.67962447 187.18782195 -140.61328125 176.8359375 C-142.11765302 170.70361288 -142.77706347 164.41912064 -143.53515625 158.16015625 C-143.81615679 155.10744702 -143.81615679 155.10744702 -145 153 C-145.86625 152.62875 -145.86625 152.62875 -146.75 152.25 C-152.06019712 149.29989049 -154.48274296 144.54034124 -156.421875 139.02734375 C-159.63088035 127.77414254 -157.37214021 117.20855453 -152 107 C-150.44787411 104.51828109 -148.82582814 102.29532681 -147 100 C-144 101 -144 101 -143.04858398 102.6105957 C-142.78376221 103.29210693 -142.51894043 103.97361816 -142.24609375 104.67578125 C-141.94896484 105.42150391 -141.65183594 106.16722656 -141.34570312 106.93554688 C-141.04599609 107.71994141 -140.74628906 108.50433594 -140.4375 109.3125 C-139.83323905 110.85073542 -139.22780651 112.38851122 -138.62109375 113.92578125 C-138.3573999 114.61067627 -138.09370605 115.29557129 -137.82202148 116.0012207 C-136.97644566 118.05727336 -136.01739288 120.02408538 -135 122 C-83.34319101 110.38629119 -27.60486948 76.66594746 4 34 C4.70511719 33.07445312 5.41023437 32.14890625 6.13671875 31.1953125 C9.15651034 26.89617921 9.15651034 26.89617921 9.93359375 21.84375 C9.21528714 19.35000629 8.2273352 17.29054999 7 15 C6.4121875 13.88367188 5.824375 12.76734375 5.21875 11.6171875 C3.98556032 9.2980784 2.7182691 7.01060058 1.42578125 4.72265625 C0 2 0 2 0 0 Z " fill="#907AFE" transform="translate(313,148)"/>
<path d="M0 0 C19.51358589 13.22630085 37.39370391 28.804546 51.98828125 47.34765625 C52.80296875 48.34539062 53.61765625 49.343125 54.45703125 50.37109375 C61.01338239 58.49711473 66.1801789 67.09382691 70.98828125 76.34765625 C71.35179687 77.03279297 71.7153125 77.71792969 72.08984375 78.42382812 C73.14417317 80.42819178 74.16540622 82.44583635 75.17578125 84.47265625 C75.76746094 85.65085938 76.35914063 86.8290625 76.96875 88.04296875 C78.21273982 92.07521162 77.79917452 93.58852668 75.98828125 97.34765625 C63.90089194 117.00859775 46.25470704 132.80195248 27.92578125 146.41015625 C27.27005127 146.89991943 26.61432129 147.38968262 25.9387207 147.89428711 C21.22643311 151.34765625 21.22643311 151.34765625 18.98828125 151.34765625 C18.70742676 150.73994385 18.42657227 150.13223145 18.13720703 149.50610352 C4.37961708 119.87844986 -12.36409747 93.01898265 -35.01171875 69.34765625 C-35.79023193 68.52031982 -35.79023193 68.52031982 -36.58447266 67.67626953 C-72.52192992 29.61284378 -120.19541229 9.88440962 -172.01171875 7.34765625 C-166.5699677 -12.05064248 -156.0514004 -26.06160228 -138.515625 -36.078125 C-98.19408286 -57.40262233 -34.35657401 -22.70108934 0 0 Z " fill="#404077" transform="translate(246.01171875,78.65234375)"/>
<path d="M0 0 C0.33 0 0.66 0 1 0 C1.22146414 8.42983356 0.64940021 16.48120037 -0.625 24.8125 C-0.80321289 25.98103516 -0.98142578 27.14957031 -1.16503906 28.35351562 C-5.05062242 52.61375689 -12.14765874 86.0318521 -32.62695312 102.29174805 C-38.25707785 106.15702291 -44.1564858 107.67198823 -50.75 109.1875 C-51.75804688 109.43435547 -52.76609375 109.68121094 -53.8046875 109.93554688 C-63.15983931 112.17862995 -72.34715232 114.15808374 -82 114 C-81.98952637 115.05799805 -81.97905273 116.11599609 -81.96826172 117.20605469 C-81.9316562 121.18697636 -81.90895427 125.16788363 -81.89013672 129.14892578 C-81.88017045 130.86151646 -81.86659253 132.57409054 -81.84912109 134.28662109 C-81.55082871 164.30887201 -81.55082871 164.30887201 -89.91967773 172.99169922 C-96.98641094 179.44809331 -104.57879042 184.71022396 -112.5625 189.9375 C-113.89830276 190.81990277 -115.23399538 191.70247229 -116.56958008 192.58520508 C-140.98735634 208.66245211 -140.98735634 208.66245211 -148 211 C-148 208 -148 208 -146.71484375 206.45703125 C-146.12832031 205.91433594 -145.54179687 205.37164062 -144.9375 204.8125 C-141.03529282 201.06606955 -137.5169495 197.10653557 -134 193 C-133.16339844 192.05253906 -132.32679688 191.10507812 -131.46484375 190.12890625 C-113.67028104 169.80495768 -98.21839802 146.02247516 -99.82470703 118.15625 C-100.14424673 114.2256447 -100.79209768 110.38342132 -101.54296875 106.515625 C-102.3944367 101.8289125 -102.62357556 97.75380625 -101 93.1875 C-96.24589213 87.98769451 -88.40624439 87.42617377 -81.75 86.5625 C-62.92485946 83.80831036 -48.32701896 76.48086623 -35 63 C-34.28199219 62.29230469 -33.56398438 61.58460938 -32.82421875 60.85546875 C-17.36687983 44.65469068 -6.78017827 21.09754501 0 0 Z " fill="#404077" transform="translate(150,192)"/>
<path d="M0 0 C1.17622612 1.76433918 2.33364344 3.54194516 3.4453125 5.34765625 C7.53550411 11.95854734 12.01834594 18.03495448 17 24 C13.09200392 33.97212792 -1.85644012 40.05912578 -11.07324219 44.17480469 C-21.02698679 48.43781238 -30.29175565 49.70378301 -41 50 C-37.72891612 46.62299531 -34.3290854 43.5267659 -30.73461914 40.49804688 C-17.44402252 29.27540159 -5.33605643 17.00867986 0 0 Z " fill="#815FFE" transform="translate(350,186)"/>
<path d="M0 0 C1.08667969 0.41572266 1.08667969 0.41572266 2.1953125 0.83984375 C3.16210938 1.20207031 4.12890625 1.56429688 5.125 1.9375 C6.55199219 2.47697266 6.55199219 2.47697266 8.0078125 3.02734375 C14.52224577 5.14495979 21.08423573 5.28185188 27.875 5.5625 C29.33679688 5.62727539 29.33679688 5.62727539 30.828125 5.69335938 C33.21862802 5.79882274 35.60922444 5.90094175 38 6 C34.53641926 9.97904837 30.55070355 12.11309149 25.9375 14.5 C25.1839624 14.89437256 24.4304248 15.28874512 23.65405273 15.69506836 C9.44909224 23 9.44909224 23 4 23 C3.67 23.66 3.34 24.32 3 25 C0.78227509 16.72049367 0.39728885 8.52080037 0 0 Z " fill="#815FFD" transform="translate(170,302)"/>
</svg>