<?xml version="1.0" encoding="UTF-8"?>
<svg version="1.1" xmlns="http://www.w3.org/2000/svg" width="512" height="512">
<path d="M0 0 C26.49509679 24.11685529 40.79289963 54.30420636 43.01269531 90.21630859 C43.17077192 94.11602862 43.24859367 98.00746649 43.28515625 101.91015625 C43.30368652 103.07699951 43.3222168 104.24384277 43.34130859 105.44604492 C43.18082447 128.7272568 37.21148006 151.79578304 32.22265625 174.41015625 C20.4864446 217.14203497 20.4864446 217.14203497 29.48828125 258.6875 C35.03408477 266.58859959 43.99733479 271.89223695 52.16015625 276.78515625 C72.2142594 289.44038089 85.9032548 309.54023361 93.78515625 331.53515625 C94.12933594 332.46585937 94.47351563 333.3965625 94.828125 334.35546875 C98.0329137 344.67699479 97.04995822 355.85073641 96.78515625 366.53515625 C86.85957798 361.17180117 86.85957798 361.17180117 82.640625 358.671875 C66.5980713 349.17574891 49.52143281 342.19303878 31.78515625 336.53515625 C30.95967285 336.27105957 30.13418945 336.00696289 29.28369141 335.73486328 C-4.64966686 325.06179572 -34.23282306 324.07584726 -69.30859375 328.40625 C-105.30198564 332.7910491 -136.39333823 331.27048624 -166.37890625 309.20703125 C-169.05771103 307.04889557 -171.64513069 304.82159386 -174.21484375 302.53515625 C-175.06433594 301.81714844 -175.91382813 301.09914063 -176.7890625 300.359375 C-183.03882232 294.97099096 -188.22539439 289.0966239 -193.21484375 282.53515625 C-193.61703125 282.00792969 -194.01921875 281.48070312 -194.43359375 280.9375 C-224.56219317 241.11125764 -236.5860045 190.58967486 -240.21484375 141.53515625 C-240.27124023 140.83729004 -240.32763672 140.13942383 -240.38574219 139.42041016 C-243.95592125 94.32841485 -239.60855527 52.87083245 -209.609375 17.25 C-160.07339202 -38.91232981 -58.19364078 -49.96596845 0 0 Z M-197.4765625 23.421875 C-225.07775484 54.13854584 -229.85159624 90.72419388 -227.8984375 130.56640625 C-224.70146331 185.85548167 -212.39757751 242.50360293 -174.21484375 284.53515625 C-173.62574219 285.19515625 -173.03664062 285.85515625 -172.4296875 286.53515625 C-156.10652336 303.86097175 -132.2776268 316.56306582 -108.40234375 317.90625 C-106.67351027 317.94677349 -104.94414479 317.96762967 -103.21484375 317.97265625 C-101.7287561 317.97845703 -101.7287561 317.97845703 -100.21264648 317.984375 C-90.40831689 317.84570603 -80.79025239 316.62019065 -71.07443237 315.38912964 C-42.39065694 311.75917916 -15.56947165 310.35293435 12.78515625 317.53515625 C14.36200195 317.92864258 14.36200195 317.92864258 15.97070312 318.33007812 C39.14547102 324.21909593 61.00234875 332.75733742 82.78515625 342.53515625 C81.14239899 335.9678881 79.36305713 329.76469576 76.28515625 323.72265625 C75.94548828 323.05105469 75.60582031 322.37945312 75.25585938 321.6875 C71.33853485 314.25785064 66.29664246 307.83973813 60.78515625 301.53515625 C60.11742187 300.76558594 59.4496875 299.99601562 58.76171875 299.203125 C53.23040059 293.28671507 46.50967258 288.96029695 39.78515625 284.53515625 C37.57605228 283.0779803 35.36784635 281.61947682 33.16015625 280.16015625 C32.19851563 279.53367187 31.236875 278.9071875 30.24609375 278.26171875 C27.78515625 276.53515625 27.78515625 276.53515625 26.07421875 274.80859375 C24.85002032 273.30089555 24.85002032 273.30089555 22.78515625 273.53515625 C22.55828125 273.01953125 22.33140625 272.50390625 22.09765625 271.97265625 C20.79820137 269.36102907 20.79820137 269.36102907 18.47265625 266.78515625 C15.70693898 263.00999321 14.40840264 258.95663561 13.03515625 254.53515625 C12.82463623 253.8587207 12.61411621 253.18228516 12.3972168 252.48535156 C8.44302583 239.14177797 9.37399713 225.99778928 11.39453125 212.421875 C11.56875107 211.25111923 11.74297089 210.08036346 11.92247009 208.87413025 C14.02016055 195.32254552 16.94929349 181.95297931 19.91125488 168.56970215 C27.59060863 135.85579808 27.59060863 135.85579808 30.16015625 102.47265625 C30.15072998 101.28438232 30.14130371 100.0961084 30.1315918 98.87182617 C29.96199113 88.88025206 29.03359925 79.27250781 26.78515625 69.53515625 C26.53572266 68.45234375 26.53572266 68.45234375 26.28125 67.34765625 C23.61976185 56.30740909 19.32119629 46.42504686 13.78515625 36.53515625 C13.22957031 35.53742188 12.67398438 34.5396875 12.1015625 33.51171875 C-3.00767866 8.22095057 -29.50355273 -6.27667008 -57.3828125 -13.36328125 C-107.1748178 -25.15210606 -161.6458742 -14.76884491 -197.4765625 23.421875 Z " fill="#000000" transform="translate(327.21484375,89.46484375)"/>
<path d="M0 0 C3.64507865 1.54537897 6.03364548 3.77091785 8.875 6.5 C35.78658453 31.47563071 68.80593041 39.37041643 104.78173828 38.15966797 C135.70763691 36.625338 161.83071594 22.79653681 183.85546875 1.8359375 C186 0 186 0 188 0 C184.00404738 24.06565679 178.53526746 43.49130113 161 61 C160.41734375 61.65355469 159.8346875 62.30710937 159.234375 62.98046875 C145.56068697 78.06986691 122.44191944 86.54331186 102.47265625 87.91015625 C101.65667969 87.93980469 100.84070313 87.96945312 100 88 C98.51306641 88.05994141 98.51306641 88.05994141 96.99609375 88.12109375 C69.27086853 88.68827646 44.48174687 78.41252687 24.4453125 59.6015625 C9.87236837 44.42351342 0 21.19683864 0 0 Z M24 35 C25.43325262 39.23811258 27.52813725 42.19174028 30.375 45.625 C31.14585937 46.56601562 31.91671875 47.50703125 32.7109375 48.4765625 C34.69587033 50.66473077 36.56824845 52.34552063 39 54 C38.58805331 49.37246548 37.89550244 45.26108947 36 41 C32.28064235 38.15102264 28.41963752 36.50062111 24 35 Z M152 40 C150.81803504 44.03969358 150.77311457 47.81596566 151 52 C156.06896927 47.23824099 161.77462269 41.67613194 164 35 C159.49207218 35 155.35860212 37.11360907 152 40 Z M45.9375 50.9375 C45.18339844 51.68902344 44.42929688 52.44054687 43.65234375 53.21484375 C43.10707031 53.80394531 42.56179687 54.39304687 42 55 C43.5041341 59.3029659 46.24847412 60.60553888 50.125 62.75 C51.22070312 63.36359375 52.31640625 63.9771875 53.4453125 64.609375 C54.28835937 65.06828125 55.13140625 65.5271875 56 66 C60.39831531 62.31977699 64.53758412 58.545708 68.51953125 54.41796875 C70 53 70 53 72 52 C72.33 58.6 72.66 65.2 73 72 C86.6885103 75.91100294 105.68073365 77.65963317 119 71 C120.31802493 64.1487572 120.13572367 56.95206822 120 50 C111.25481179 49.50185246 111.25481179 49.50185246 103 52 C98.73689497 56.90315979 95 65.41309455 95 72 C94.34 72 93.68 72 93 72 C91.92815448 68.84240103 90.93155741 65.72804672 90.1171875 62.4921875 C88.6692112 58.27575336 87.4798334 54.90471043 84 52 C77.32434802 49.32999656 69.97551259 48.79615638 62.86010742 48.24731445 C60.22131937 48.01913756 57.66930725 47.61322875 55.05859375 47.1796875 C50.77752682 46.69535793 48.97907417 47.79936792 45.9375 50.9375 Z M127.1875 48 C126.00220703 48.2784375 126.00220703 48.2784375 124.79296875 48.5625 C123.90544922 48.7790625 123.90544922 48.7790625 123 49 C122.66560012 52.28243564 122.66560012 52.28243564 125.625 54.91796875 C126.74249406 56.01550756 127.86785643 57.10507895 129 58.1875 C129.57234375 58.74630859 130.1446875 59.30511719 130.734375 59.88085938 C132.14962788 61.26073093 133.57397155 62.63126734 135 64 C136.44349674 63.26160754 137.87959051 62.50873357 139.3125 61.75 C140.11300781 61.33234375 140.91351563 60.9146875 141.73828125 60.484375 C144.13190204 58.91343217 145.43301591 57.3732963 147 55 C145.45025019 53.65186813 143.88462935 52.3219657 142.3125 51 C141.44238281 50.2575 140.57226562 49.515 139.67578125 48.75 C135.37838893 45.93944268 131.97707295 46.85622139 127.1875 48 Z " fill="#000000" transform="translate(134,225)"/>
<path d="M0 0 C3.97510033 0.58913553 6.80697025 1.82045195 10.26171875 3.8515625 C11.28475098 4.44783447 12.3077832 5.04410645 13.36181641 5.65844727 C14.45929199 6.30740967 15.55676758 6.95637207 16.6875 7.625 C17.8477084 8.30404975 19.00836111 8.98234087 20.16943359 9.65991211 C22.58227311 11.06872425 24.99316635 12.4807863 27.40283203 13.89501953 C31.88883662 16.52443437 36.39577756 19.11719552 40.90332031 21.70947266 C45.18700986 24.17334077 49.46525839 26.64658014 53.74365234 29.11962891 C55.96950906 30.40494518 58.19644812 31.68838844 60.42431641 32.97021484 C63.76459484 34.89242818 67.10136305 36.82061005 70.4375 38.75 C71.45666504 39.33467041 72.47583008 39.91934082 73.52587891 40.52172852 C74.4647998 41.06627686 75.4037207 41.6108252 76.37109375 42.171875 C77.19536865 42.6472168 78.01964355 43.12255859 78.86889648 43.61230469 C80.86680513 44.91326845 82.39593283 46.24681507 84 48 C75.10118501 57.88757221 63.81638556 65.69674398 50.1328125 66.43359375 C48.46370696 66.45712082 46.7941461 66.45794772 45.125 66.4375 C43.80737671 66.42505249 43.80737671 66.42505249 42.46313477 66.41235352 C35.66938422 66.23573737 30.03944321 65.26534489 24 62 C23.05769531 61.49082031 22.11539063 60.98164063 21.14453125 60.45703125 C10.15225577 53.97440725 3.30061277 45.01878742 -1 33 C-3.85543088 21.77722044 -2.94559278 11.10677644 0 0 Z M11 21 C11.48559518 31.48885581 15.38021196 38.78206691 23 46 C29.76702327 51.17016285 36.31907399 53.37731762 44.875 53.3125 C45.57882813 53.31121094 46.28265625 53.30992187 47.0078125 53.30859375 C52.32765727 53.21007811 56.2728306 52.3635847 61 50 C58.44084745 47.10596909 55.53055174 45.44606028 52.1796875 43.55859375 C51.60774658 43.234319 51.03580566 42.91004425 50.4465332 42.57594299 C48.59182024 41.52536617 46.73347563 40.48140362 44.875 39.4375 C42.33213134 38.0008179 39.79102842 36.56102753 37.25 35.12109375 C36.62415009 34.76703461 35.99830017 34.41297546 35.35348511 34.04818726 C29.44951818 30.70241522 23.60538141 27.25850934 17.80029297 23.74389648 C14.62364601 21.67749523 14.62364601 21.67749523 11 21 Z " fill="#000000" transform="translate(133,145)"/>
<path d="M0 0 C4.0886578 12.23853273 3.67354536 27.40186746 -2 39 C-8.83473463 51.9600411 -17.79487137 58.24308432 -31 64 C-42.03246427 67.27255434 -56.85183224 66.18819371 -67 61 C-73.18190747 57.30516963 -78.63527333 52.78160421 -84 48 C-82.7220314 44.1660942 -81.52549332 43.89363185 -78.03125 41.99609375 C-76.99427979 41.42576416 -75.95730957 40.85543457 -74.88891602 40.26782227 C-73.77057373 39.66381592 -72.65223145 39.05980957 -71.5 38.4375 C-69.18543129 37.16545643 -66.87162963 35.89201618 -64.55859375 34.6171875 C-62.86065674 33.68471191 -62.86065674 33.68471191 -61.12841797 32.73339844 C-57.23289197 30.57495965 -53.38842652 28.34142356 -49.5625 26.0625 C-41.22928173 21.11337752 -32.83372015 16.27465613 -24.43383789 11.43969727 C-23.38703857 10.83697998 -22.34023926 10.2342627 -21.26171875 9.61328125 C-20.23224121 9.02369629 -19.20276367 8.43411133 -18.14208984 7.82666016 C-15.96145421 6.55894331 -13.7959579 5.26496514 -11.64306641 3.95068359 C-10.5710498 3.3005127 -9.4990332 2.6503418 -8.39453125 1.98046875 C-6.94784058 1.08751099 -6.94784058 1.08751099 -5.47192383 0.17651367 C-3 -1 -3 -1 0 0 Z M-18.109375 22.82421875 C-19.16463379 23.43515381 -20.21989258 24.04608887 -21.30712891 24.67553711 C-22.44327637 25.33948486 -23.57942383 26.00343262 -24.75 26.6875 C-25.9169878 27.36560349 -27.08414427 28.04341679 -28.25146484 28.72094727 C-39.20348116 35.08616142 -50.11152119 41.52679769 -61 48 C-56.68245906 52.31754094 -49.89672769 52.91454018 -44 53 C-33.65442819 51.98950229 -24.96267464 47.76661233 -18 40 C-13.48829123 33.53093384 -11.25813394 27.87308509 -11 20 C-13.91463774 20 -15.59515015 21.36276622 -18.109375 22.82421875 Z " fill="#000000" transform="translate(323,146)"/>
</svg>